<svg id="Capa_1" enable-background="new 0 0 512.675 512.675" height="512" viewBox="0 0 512.675 512.675" width="512" xmlns="http://www.w3.org/2000/svg"><g><g><path d="m201.594 250.031c2.351-3.411 1.491-8.081-1.92-10.431-3.413-2.353-8.081-1.492-10.432 1.919-2.835 4.113-8.075 6.543-13.049 6.05-4.002-.398-7.962-2.782-10.335-6.22-2.354-3.409-7.025-4.267-10.433-1.912-3.409 2.353-4.266 7.023-1.913 10.433 4.88 7.07 12.804 11.791 21.194 12.625 10.367 1.035 20.976-3.887 26.888-12.464z"/><path d="m246.416 318.032c-3.41-2.354-8.081-1.497-10.434 1.912-3.068 4.446-8.198 7.529-13.388 8.045-6.44.642-13.243-2.51-16.918-7.843-2.351-3.41-7.02-4.271-10.432-1.92-3.41 2.351-4.271 7.021-1.92 10.432 3.073 4.46 7.281 8.096 12.083 10.589 6.154 3.194 11.826 4.349 18.673 3.668 9.597-.955 18.66-6.357 24.247-14.451 2.354-3.409 1.498-8.08-1.911-10.432z"/><path d="m468.495 409.233c-2.851-3.006-7.599-3.13-10.603-.281l-7.357 6.978-34.112-35.967 10.43-9.893c2.72-2.579 4.271-6.063 4.371-9.81.099-3.747-1.268-7.308-3.847-10.027l-9.694-10.222c-2.579-2.719-6.063-4.271-9.81-4.371-3.737-.099-7.309 1.267-10.027 3.846l-.688.653-14.622-15.416c-2.851-3.005-7.599-3.131-10.603-.28-3.006 2.85-3.131 7.597-.28 10.603l14.622 15.416-28.518 27.048-59.256-62.478 28.518-27.047 21.181 22.333c2.851 3.005 7.599 3.13 10.603.281 3.006-2.851 3.131-7.598.28-10.603l-14.054-14.819c.851-5.311 1.423-10.665 1.707-16.068.115-2.176.197-4.838.255-7.799l9.326-15.596c3.962-6.624 7.447-13.35 10.36-19.991 17.013-38.783 3.46-86.84-17.518-117.263-16.998-24.652-40.712-42.417-69.698-52.512.873-14.182-2.435-26.068-9.934-35.446-16.287-20.368-46.139-20.536-48.698-20.5-2.561-.035-32.412.133-48.698 20.5-7.24 9.055-10.562 20.454-9.999 33.993-3.686 1.24-7.222 2.724-10.644 4.378-21.717 9.675-55.68 31.382-74.354 76.851-.018.042-.033.083-.05.125-5.351 13.719-8.756 29.517-9.589 44.484-.954 17.138 1.445 32.815 6.938 45.336 2.919 6.652 6.409 13.387 10.376 20.02l9.868 16.502c.059 2.405.139 4.731.254 6.92 1.994 37.921 17.846 73.425 48.462 108.541 6.651 7.629 14.559 15.085 23.547 22.25l1.657 17.957c.012.117.024.233.041.35 1.181 8.446-4.12 16.553-12.331 18.856l-79.459 22.298c-20.446 5.738-34.727 24.578-34.727 45.814 0 4.142 3.357 7.5 7.5 7.5h342.416c4.143 0 7.5-3.358 7.5-7.5 0-21.236-14.28-40.076-34.727-45.814l-79.459-22.298c-8.211-2.304-13.512-10.411-12.331-18.856.017-.116.029-.232.041-.35l1.656-17.95c8.992-7.167 16.903-14.626 23.556-22.257 6.527-7.487 12.377-14.992 17.571-22.534l31.03 32.717-.689.654c-2.72 2.579-4.271 6.063-4.371 9.81-.099 3.747 1.268 7.308 3.847 10.027l9.693 10.221c2.579 2.72 6.063 4.272 9.811 4.372.127.003.254.005.381.005 3.606 0 7.02-1.359 9.646-3.851l10.431-9.893 34.112 35.967-7.357 6.978c-3.006 2.851-3.131 7.598-.28 10.603 1.475 1.555 3.456 2.339 5.442 2.339 1.854 0 3.71-.683 5.16-2.058l45.516-43.169c3.005-2.854 3.13-7.601.279-10.607zm-180.317-105.084-21.511-22.68 28.519-27.047 21.51 22.68zm-23.898-41.089-10.874-11.465c-.619-.653-.591-1.688.062-2.306l10.281-9.751c.314-.299.719-.447 1.122-.447.433 0 .864.17 1.185.508l10.874 11.464zm-80.479-233.135c11.667-14.665 35.293-14.924 36.829-14.924h.077c.087 0 .173.001.26 0 .24.003 24.921-.043 36.845 14.869 4.501 5.629 6.76 12.892 6.785 21.689-7.667-1.879-15.642-3.281-23.917-4.173-10.435-1.125-20.668-1.534-30.413-1.215-11.562.377-22.662 1.792-33.19 4.174.221-8.225 2.46-15.061 6.724-20.42zm-16.886 38.786c12.99-4.368 26.591-6.705 40.263-7.421 49.179-2.576 100.59 13.572 129.63 55.685 25.836 37.466 26.718 78.588 16.131 102.722-2.895 6.598-6.292 12.959-9.984 19.133-6.211-23.876-17.885-46.463-34.845-67.366-18.898-23.291-44.623-44.373-74.393-60.967-27.25-15.189-58.421-24.029-90.145-25.564-2.065-.1-4.039-.176-5.923-.228 9.527-6.551 18.824-12.482 29.266-15.994zm114.383 382.794 79.459 22.298c11.532 3.236 20.199 12.558 22.897 23.872h-325.652c2.698-11.313 11.365-20.635 22.897-23.872l79.459-22.298c15.344-4.305 25.271-19.411 23.159-35.189l-.48-5.205c11.785 6.491 24.788 9.746 37.795 9.746 13.003 0 26.003-3.254 37.787-9.742l-.48 5.201c-2.112 15.778 7.815 30.883 23.159 35.189zm5.668-83.713c-7.718 8.853-17.342 17.516-28.604 25.747-22.446 16.406-52.61 16.408-75.059 0-11.263-8.231-20.887-16.894-28.604-25.747-28.327-32.491-42.979-65.028-44.79-99.471-.17-3.228-.266-6.788-.313-10.521 5.064-33.943 21.093-66.71 45.327-92.535 2.835-3.021 2.684-7.767-.336-10.601-3.022-2.835-7.769-2.683-10.602.336-22.274 23.735-38.172 52.909-45.868 83.716l-.436-.728c-3.645-6.096-6.846-12.269-9.513-18.347-10.107-23.042-5.846-55.906 2.866-78.283 6.373-15.496 15.187-29.045 26.31-40.546 2.559-.718 9.147-1.689 25.504-.897 20.947 1.014 41.618 5.473 60.901 13.024-11.25 4.736-22.129 10.804-32.459 18.16-3.375 2.402-4.162 7.085-1.76 10.459s7.084 4.162 10.459 1.759c13.539-9.639 28.089-16.834 43.171-21.469 1.088.578 2.179 1.152 3.254 1.751 82.115 45.771 101.35 105.383 105.506 136.843.189 1.43.15 2.881.07 4.317-.115 2.068-.273 4.13-.459 6.187-5.286-5.573-26.065-27.483-26.065-27.483-4.604-4.854-11.858-5.702-17.396-2.45l-11.133-11.738c-6.213-6.551-16.529-6.909-23.196-.893l-29.718-31.333c-2.851-3.006-7.599-3.13-10.603-.281-3.006 2.851-3.131 7.598-.28 10.603l29.718 31.333c-6.361 6.34-6.55 16.659-.336 23.211l11.131 11.737c-1.448 2.183-2.272 4.725-2.343 7.409-.1 3.772 1.275 7.357 3.872 10.095l50.07 52.792c-5.543 8.35-11.702 16.292-18.286 23.844zm78.606 39.728-8.361-8.817 50.257-47.666 8.361 8.816zm65.046 27.301-34.112-35.966 9.035-8.569 34.112 35.967z"/></g></g></svg>